<?xml version="1.0" encoding="UTF-8" standalone="no"?>
<!-- Created with Inkscape (http://www.inkscape.org/) -->

<svg
   xmlns:dc="http://purl.org/dc/elements/1.1/"
   xmlns:cc="http://creativecommons.org/ns#"
   xmlns:rdf="http://www.w3.org/1999/02/22-rdf-syntax-ns#"
   xmlns:svg="http://www.w3.org/2000/svg"
   xmlns="http://www.w3.org/2000/svg"
   xmlns:sodipodi="http://sodipodi.sourceforge.net/DTD/sodipodi-0.dtd"
   xmlns:inkscape="http://www.inkscape.org/namespaces/inkscape"
   width="210mm"
   height="297mm"
   viewBox="0 0 210 297"
   version="1.1"
   id="svg4048"
   inkscape:version="0.92.4 (5da689c313, 2019-01-14)"
   sodipodi:docname="icons.svg">
  <defs
     id="defs4042" />
  <sodipodi:namedview
     id="base"
     pagecolor="#ffffff"
     bordercolor="#666666"
     borderopacity="1.0"
     inkscape:pageopacity="0.0"
     inkscape:pageshadow="2"
     inkscape:zoom="1.979899"
     inkscape:cx="331.6868"
     inkscape:cy="849.98852"
     inkscape:document-units="mm"
     inkscape:current-layer="layer1"
     showgrid="true"
     inkscape:window-width="1920"
     inkscape:window-height="1052"
     inkscape:window-x="1920"
     inkscape:window-y="0"
     inkscape:window-maximized="1">
    <inkscape:grid
       type="xygrid"
       id="grid4154" />
  </sodipodi:namedview>
  <metadata
     id="metadata4045">
    <rdf:RDF>
      <cc:Work
         rdf:about="">
        <dc:format>image/svg+xml</dc:format>
        <dc:type
           rdf:resource="http://purl.org/dc/dcmitype/StillImage" />
        <dc:title></dc:title>
      </cc:Work>
    </rdf:RDF>
  </metadata>
  <g
     inkscape:label="Layer 1"
     inkscape:groupmode="layer"
     id="layer1">
    <path
       id="path4050"
       d="m 157.42708,86.425561 c -1.84184,0 -3.33994,1.299951 -3.33994,2.898172 0,0.266874 0.24911,0.483029 0.55666,0.483029 0.30755,0 0.55666,-0.216155 0.55666,-0.483029 0,-1.065682 0.99919,-1.932115 2.22662,-1.932115 0.30755,0 0.55666,-0.216155 0.55666,-0.483028 0,-0.266874 -0.24911,-0.483029 -0.55666,-0.483029 z m -2.78119,11.446876 c 0,0.0951 0.0324,0.187777 0.0932,0.266873 l 0.85272,1.112174 c 0.10333,0.134644 0.27729,0.215551 0.46342,0.215551 h 2.74327 c 0.18648,0 0.36044,-0.08091 0.46342,-0.215551 l 0.85272,-1.112174 c 0.0605,-0.0791 0.0929,-0.172079 0.0932,-0.266873 l 0.002,-1.303574 h -5.56515 z m 2.78119,-13.86202 c -3.55842,0 -6.12321,2.504806 -6.12321,5.313316 0,1.339499 0.57231,2.561562 1.51549,3.495317 0.57892,0.573295 1.48697,1.775131 1.82374,2.782245 v 0.0018 h 1.66997 v -0.0036 c -3.4e-4,-0.144003 -0.025,-0.287101 -0.0748,-0.424764 -0.19448,-0.537677 -0.79393,-1.955366 -2.16295,-3.310865 -0.71461,-0.707336 -1.09662,-1.604562 -1.09975,-2.540128 -0.007,-2.22314 2.07598,-3.86423 4.45151,-3.86423 2.45555,0 4.45325,1.73347 4.45325,3.86423 0,0.934963 -0.39105,1.837019 -1.10114,2.540128 -1.36067,1.346744 -1.9629,2.761414 -2.16052,3.30452 a 1.6528155,1.4342029 0 0 0 -0.0772,0.431707 v 0.003 h 1.66997 v -0.0015 c 0.33678,-1.00742 1.24482,-2.209256 1.82374,-2.782249 0.94284,-0.934057 1.51515,-2.15612 1.51515,-3.495619 0,-2.934399 -2.74153,-5.313316 -6.12321,-5.313316 z"
       inkscape:connector-curvature="0"
       style="fill:#333333;stroke-width:0.03240857" />
    <text
       style="font-variant:normal;font-weight:normal;font-stretch:normal;font-size:14.09700012px;line-height:0%;font-family:FontAwesome;-inkscape-font-specification:FontAwesome;writing-mode:lr-tb;fill:#303030;fill-opacity:1;fill-rule:nonzero;stroke:none;stroke-width:0.28222224"
       id="text4873"
       x="129.93312"
       y="72.662712"
       inkscape:export-xdpi="600"
       inkscape:export-ydpi="600">
      <tspan
         style="stroke-width:0.28222224"
         x="129.93312"
         y="72.662712"
         id="tspan4875"></tspan>
    </text>
    <text
       style="font-variant:normal;font-weight:normal;font-stretch:normal;font-size:14.09700012px;line-height:0%;font-family:FontAwesome;-inkscape-font-specification:FontAwesome;writing-mode:lr-tb;fill:#303030;fill-opacity:1;fill-rule:nonzero;stroke:none;stroke-width:0.28222224"
       id="text4877"
       x="18.522961"
       y="71.233025"
       inkscape:export-xdpi="600"
       inkscape:export-ydpi="600">
      <tspan
         style="stroke-width:0.28222224"
         x="18.522961"
         y="71.233025"
         id="tspan4879"></tspan>
    </text>
    <text
       style="font-variant:normal;font-weight:normal;font-stretch:normal;font-size:14.09700012px;line-height:0%;font-family:FontAwesome;-inkscape-font-specification:FontAwesome;writing-mode:lr-tb;fill:#303030;fill-opacity:1;fill-rule:nonzero;stroke:none;stroke-width:0.28222224"
       id="text4881"
       x="35.715469"
       y="99.687943"
       inkscape:export-xdpi="600"
       inkscape:export-ydpi="600">
      <tspan
         style="stroke-width:0.28222224"
         x="35.715469"
         y="99.687943"
         id="tspan4883"></tspan>
    </text>
    <text
       style="font-variant:normal;font-weight:normal;font-stretch:normal;font-size:14.09700012px;line-height:0%;font-family:FontAwesome;-inkscape-font-specification:FontAwesome;writing-mode:lr-tb;fill:#303030;fill-opacity:1;fill-rule:nonzero;stroke:none;stroke-width:0.28222224"
       id="text4889"
       x="57.548607"
       y="71.800674"
       inkscape:export-xdpi="600"
       inkscape:export-ydpi="600">
      <tspan
         style="stroke-width:0.28222224"
         x="57.548607"
         y="71.800674"
         id="tspan4891"></tspan>
    </text>
    <text
       xml:space="preserve"
       style="font-style:normal;font-weight:normal;font-size:3.38666677px;line-height:0%;font-family:sans-serif;letter-spacing:0px;word-spacing:0px;fill:#000000;fill-opacity:1;stroke:none;stroke-width:0.28222224px;stroke-linecap:butt;stroke-linejoin:miter;stroke-opacity:1"
       x="131.28198"
       y="58.021461"
       id="text5467-8-6"
       inkscape:export-xdpi="600"
       inkscape:export-ydpi="600"><tspan
         sodipodi:role="line"
         x="131.28198"
         y="58.021461"
         style="font-style:normal;font-variant:normal;font-weight:normal;font-stretch:normal;font-size:4.5694046px;line-height:100%;font-family:'Gill Sans MT';-inkscape-font-specification:'Gill Sans MT';stroke-width:0.28222224px"
         id="tspan5489-9">text</tspan></text>
    <text
       xml:space="preserve"
       style="font-style:normal;font-weight:normal;font-size:3.38666677px;line-height:0%;font-family:sans-serif;letter-spacing:0px;word-spacing:0px;fill:#000000;fill-opacity:1;stroke:none;stroke-width:0.28222224px;stroke-linecap:butt;stroke-linejoin:miter;stroke-opacity:1"
       x="19.107944"
       y="56.429119"
       id="text5467-8-6-4"
       inkscape:export-xdpi="600"
       inkscape:export-ydpi="600"><tspan
         sodipodi:role="line"
         x="19.107944"
         y="56.429119"
         style="font-style:normal;font-variant:normal;font-weight:normal;font-stretch:normal;font-size:4.5694046px;line-height:100%;font-family:'Gill Sans MT';-inkscape-font-specification:'Gill Sans MT';stroke-width:0.28222224px"
         id="tspan5489-9-2">data</tspan></text>
    <text
       xml:space="preserve"
       style="font-style:normal;font-weight:normal;font-size:3.38666677px;line-height:0%;font-family:sans-serif;letter-spacing:0px;word-spacing:0px;fill:#000000;fill-opacity:1;stroke:none;stroke-width:0.28222224px;stroke-linecap:butt;stroke-linejoin:miter;stroke-opacity:1"
       x="35.565479"
       y="85.05938"
       id="text5467-8-6-6"
       inkscape:export-xdpi="600"
       inkscape:export-ydpi="600"><tspan
         sodipodi:role="line"
         x="35.565479"
         y="85.05938"
         style="font-style:normal;font-variant:normal;font-weight:normal;font-stretch:normal;font-size:4.5694046px;line-height:100%;font-family:'Gill Sans MT';-inkscape-font-specification:'Gill Sans MT';stroke-width:0.28222224px"
         id="tspan5489-9-3">code</tspan></text>
    <text
       xml:space="preserve"
       style="font-style:normal;font-weight:normal;font-size:3.38666677px;line-height:0%;font-family:sans-serif;letter-spacing:0px;word-spacing:0px;fill:#000000;fill-opacity:1;stroke:none;stroke-width:0.28222224px;stroke-linecap:butt;stroke-linejoin:miter;stroke-opacity:1"
       x="53.359764"
       y="53.758068"
       id="text5467-8-6-1"
       inkscape:export-xdpi="600"
       inkscape:export-ydpi="600"><tspan
         sodipodi:role="line"
         x="53.359764"
         y="53.758068"
         style="font-style:normal;font-variant:normal;font-weight:normal;font-stretch:normal;font-size:4.5694046px;line-height:100%;font-family:'Gill Sans MT';-inkscape-font-specification:'Gill Sans MT';stroke-width:0.28222224px"
         id="tspan5489-9-5">version </tspan><tspan
         sodipodi:role="line"
         x="53.359764"
         y="58.327473"
         style="font-style:normal;font-variant:normal;font-weight:normal;font-stretch:normal;font-size:4.5694046px;line-height:100%;font-family:'Gill Sans MT';-inkscape-font-specification:'Gill Sans MT';stroke-width:0.28222224px"
         id="tspan5564">control</tspan></text>
    <path
       id="path5489"
       d="m 95.263693,69.458333 c -0.0631,0 -0.12612,0.0091 -0.18628,0.02833 -0.34195,0.109397 -0.701573,0.179557 -1.080194,0.179557 -0.37862,0 -0.738244,-0.07016 -1.080457,-0.179557 -0.06015,-0.01922 -0.122952,-0.02833 -0.186011,-0.02833 -1.637443,0 -2.963805,1.311728 -2.955097,2.926442 0.0037,0.682366 0.57334,1.231171 1.26647,1.231171 h 5.910189 c 0.69313,0 1.26278,-0.548805 1.26647,-1.231171 0.009,-1.614714 -1.31766,-2.926442 -2.95509,-2.926442 z m -1.266474,-0.831522 c 1.398924,0 2.532944,-1.11684 2.532944,-2.494569 0,-1.37773 -1.13402,-2.494569 -2.532944,-2.494569 -1.39892,0 -2.53294,1.116839 -2.53294,2.494569 0,1.377729 1.13402,2.494569 2.53294,2.494569 z M 105.39544,60.311582 H 95.263693 c -0.69841,0 -1.266474,0.578167 -1.266474,1.288601 v 1.205968 c 0.61793,0 1.189954,0.176178 1.688624,0.462533 v -1.294057 h 9.287437 v 7.483706 h -1.68862 v -1.663046 h -3.377247 v 1.663046 h -2.01158 c 0.50395,0.433693 0.87386,1.006403 1.04721,1.663048 h 6.452397 c 0.6984,0 1.26647,-0.578168 1.26647,-1.288602 v -8.232596 c 0,-0.710434 -0.56807,-1.288601 -1.26647,-1.288601 z"
       inkscape:connector-curvature="0"
       style="fill:#333333;stroke-width:0.02618417" />
    <path
       id="path5539"
       d="m 75.977745,87.979167 h 0.464852 v 6.222834 c 0,1.143445 0.695343,2.074279 1.54951,2.074279 0.854167,0 1.54951,-0.930834 1.54951,-2.074279 v -6.222834 h 0.464852 c 0.08522,0 0.15495,-0.09334 0.15495,-0.207428 v -1.244567 c 0,-0.114085 -0.06972,-0.207426 -0.15495,-0.207426 h -4.028724 c -0.08522,0 -0.154952,0.09334 -0.154952,0.207426 v 1.244567 c 0,0.114086 0.06972,0.207428 0.154952,0.207428 z m 1.394558,0 h 1.239608 v 2.489134 h -1.239608 z m 9.297057,9.956534 H 74.893087 c -0.170446,0 -0.3099,0.186686 -0.3099,0.414856 v 0.829711 c 0,0.22817 0.139454,0.414856 0.3099,0.414856 H 86.66936 c 0.170445,0 0.309902,-0.186686 0.309902,-0.414856 v -0.829711 c 0,-0.22817 -0.139457,-0.414856 -0.309902,-0.414856 z m -5.113381,-9.956534 h 0.464854 v 6.222834 c 0,1.143445 0.695343,2.074279 1.549511,2.074279 0.854161,0 1.549504,-0.930834 1.549504,-2.074279 v -6.222834 h 0.464854 c 0.08523,0 0.154951,-0.09334 0.154951,-0.207428 v -1.244567 c 0,-0.114085 -0.06971,-0.207426 -0.154951,-0.207426 h -4.028723 c -0.08523,0 -0.154951,0.09334 -0.154951,0.207426 v 1.244567 c 0,0.114086 0.06971,0.207428 0.154951,0.207428 z m 1.394561,0 h 1.239602 v 2.489134 H 82.95054 Z"
       inkscape:connector-curvature="0"
       style="fill:#333333;stroke-width:0.02240994" />
    <path
       id="path4197"
       d="m 123.46329,91.677156 -0.5061,-0.571 c -0.13984,-0.15777 -0.36649,-0.15777 -0.50633,0 l -1.03055,1.16269 -1.03055,-1.16269 c -0.13984,-0.15777 -0.36649,-0.15777 -0.50633,0 l -0.5061,0.571 c -0.13984,0.15777 -0.13984,0.41348 0,0.57125 l 1.03055,1.16269 -1.03055,1.16269 c -0.13984,0.15777 -0.13984,0.41348 0,0.57125 l 0.5061,0.571 c 0.13984,0.15777 0.36649,0.15777 0.50633,0 l 1.03055,-1.16269 1.03055,1.16269 c 0.13984,0.15777 0.36649,0.15777 0.50633,0 l 0.5061,-0.571 c 0.13984,-0.15777 0.13984,-0.41348 0,-0.57125 l -1.03055,-1.16269 1.03055,-1.16269 c 0.13984,-0.15777 0.13984,-0.41348 0,-0.57125 z m -0.43204,-6.343823 h -5.46712 c -0.32532,0 -0.60992,0.247382 -0.69248,0.602549 l -1.8971,8.148444 -1.30688,-2.67828 a 0.71615096,0.80797836 0 0 0 -0.62714,-0.41828 h -1.82282 c -0.29646,0 -0.53698,0.27111 -0.53698,0.60583 v 1.21167 c 0,0.33447 0.24052,0.60583 0.53698,0.60583 h 0.97596 l 1.98861,4.133037 c 0.27945,0.49905 0.66675,0.71362 1.0838,0.71362 0.3864,0 0.99431,-0.22719 1.21447,-1.04708 l 2.18841,-9.45401 h 4.36229 c 0.29645,0 0.53697,-0.271362 0.53697,-0.605833 v -1.211665 c 0,-0.334722 -0.24052,-0.605832 -0.53697,-0.605832 z"
       inkscape:connector-curvature="0"
       style="fill:#333333;stroke-width:0.02376531" />
    <text
       xml:space="preserve"
       style="font-style:normal;font-weight:normal;font-size:4.93888903px;line-height:1.25;font-family:sans-serif;letter-spacing:0px;word-spacing:0px;fill:#000000;fill-opacity:1;stroke:none;stroke-width:0.26458332"
       x="75.431541"
       y="83.225838"
       id="text4210"><tspan
         sodipodi:role="line"
         id="tspan4208"
         x="75.431541"
         y="83.225838"
         style="font-size:4.93888903px;stroke-width:0.26458332">tests</tspan></text>
    <text
       xml:space="preserve"
       style="font-style:normal;font-weight:normal;font-size:10.58333302px;line-height:1.25;font-family:sans-serif;letter-spacing:0px;word-spacing:0px;fill:#000000;fill-opacity:1;stroke:none;stroke-width:0.26458332"
       x="151.2419"
       y="81.908585"
       id="text4233"><tspan
         sodipodi:role="line"
         id="tspan4231"
         x="151.2419"
         y="81.908585"
         style="font-size:4.93888903px;stroke-width:0.26458332">work</tspan></text>
    <text
       xml:space="preserve"
       style="font-style:normal;font-weight:normal;font-size:10.58333302px;line-height:1.25;font-family:sans-serif;letter-spacing:0px;word-spacing:0px;fill:#000000;fill-opacity:1;stroke:none;stroke-width:0.26458332"
       x="93.327705"
       y="57.427917"
       id="text4233-3"><tspan
         sodipodi:role="line"
         id="tspan4231-6"
         x="93.327705"
         y="57.427917"
         style="font-size:4.93888903px;stroke-width:0.26458332">proof</tspan></text>
    <text
       xml:space="preserve"
       style="font-style:normal;font-weight:normal;font-size:2.7055769px;line-height:0%;font-family:sans-serif;letter-spacing:0px;word-spacing:0px;fill:#000000;fill-opacity:1;stroke:none;stroke-width:0.22546475px;stroke-linecap:butt;stroke-linejoin:miter;stroke-opacity:1"
       x="111.82632"
       y="77.041161"
       id="text5467-8-6-1-5"
       inkscape:export-xdpi="600"
       inkscape:export-ydpi="600"
       transform="scale(0.97229712,1.0284922)"><tspan
         sodipodi:role="line"
         x="111.82632"
         y="77.041161"
         style="font-style:normal;font-variant:normal;font-weight:normal;font-stretch:normal;font-size:3.65045524px;line-height:100%;font-family:'Gill Sans MT';-inkscape-font-specification:'Gill Sans MT';stroke-width:0.22546475px"
         id="tspan5489-9-5-0">formal </tspan><tspan
         sodipodi:role="line"
         x="111.82632"
         y="80.691612"
         style="font-style:normal;font-variant:normal;font-weight:normal;font-stretch:normal;font-size:3.65045524px;line-height:100%;font-family:'Gill Sans MT';-inkscape-font-specification:'Gill Sans MT';stroke-width:0.22546475px"
         id="tspan5564-9">argument</tspan></text>
    <flowRoot
       xml:space="preserve"
       id="flowRoot4306"
       style="fill:black;fill-opacity:1;stroke:none;font-family:sans-serif;font-style:normal;font-weight:normal;font-size:40px;line-height:1.25;letter-spacing:0px;word-spacing:0px"><flowRegion
         id="flowRegion4308"><rect
           id="rect4310"
           width="60"
           height="100"
           x="410"
           y="187.51968" /></flowRegion><flowPara
         id="flowPara4312"></flowPara></flowRoot>  </g>
</svg>
